# xmcd CD database file
#
# Track frame offsets:
#	150
#	15072
#	36758
#	57579
#	72295
#	82699
#	99606
#	119739
#	131380
#	152607
#	171181
#	191470
#	212243
#	233957
#
# Disc length: 3444 seconds
#
# Revision: 0
# Processed by: cddbd v1.5.2PL0 Copyright (c) Steve Scherf et al.
# Submitted via: CDex 1.70beta2
#
DISCID=b40d720e
DTITLE=Swinging Feetwarmers Jazzband - It's Wonderful - 25 Jahre
DYEAR=2015
DGENRE=Jazz
TTITLE0=At the Jazzbandball
TTITLE1=How Can You Leave Me
TTITLE2=Wolverine Blues
TTITLE3=The Jamfs Are Coming
TTITLE4=Petite Fleur
TTITLE5=It's Wonderful
TTITLE6=What a Diff'rence a Day Made
TTITLE7=Joe Avery's Blues - Second Line
TTITLE8=Rosetta
TTITLE9=Sweet Emma
TTITLE10=Oh Baby
TTITLE11=Smile
TTITLE12=Perdido
TTITLE13=Royal Garden Blues
EXTD=YEAR: 2015
EXTT0=
EXTT1=
EXTT2=
EXTT3=
EXTT4=
EXTT5=
EXTT6=
EXTT7=
EXTT8=
EXTT9=
EXTT10=
EXTT11=
EXTT12=
EXTT13=
PLAYORDER=
